<?xml version="1.0" standalone="no"?>
<!DOCTYPE svg PUBLIC "-//W3C//DTD SVG 20010904//EN"
 "http://www.w3.org/TR/2001/REC-SVG-20010904/DTD/svg10.dtd">
<svg version="1.0" xmlns="http://www.w3.org/2000/svg"
 width="300.000000pt" height="187.000000pt" viewBox="0 0 300.000000 187.000000"
 preserveAspectRatio="xMidYMid meet">
<metadata>
Created by potrace 1.16, written by Peter Selinger 2001-2019
</metadata>
<g transform="translate(0.000000,187.000000) scale(0.100000,-0.100000)"
fill="#000000" stroke="none">
<path d="M1280 1360 l0 -350 860 0 860 0 0 350 0 350 -860 0 -860 0 0 -350z
m1526 89 c108 -52 119 -200 21 -273 -25 -18 -45 -21 -152 -24 -139 -4 -179 7
-217 60 -22 32 -34 101 -24 142 9 34 54 86 91 102 18 8 70 13 134 14 86 0 112
-4 147 -21z m-1333 -36 c90 -129 133 -187 144 -190 6 -2 49 50 94 116 64 94
88 121 105 121 14 0 25 -8 29 -21 5 -16 -9 -46 -61 -122 -102 -149 -119 -167
-163 -167 -20 0 -46 8 -57 18 -33 26 -174 237 -174 259 0 51 43 44 83 -14z
m466 33 c8 -9 11 -57 9 -146 -3 -109 -6 -135 -19 -143 -9 -6 -24 -7 -33 -4
-14 6 -16 26 -16 150 0 79 3 147 7 150 11 12 40 8 52 -7z m124 -33 c89 -129
133 -187 144 -190 6 -2 49 50 94 117 86 124 106 140 133 98 8 -14 -3 -37 -63
-125 -99 -145 -117 -163 -159 -163 -18 0 -42 4 -52 10 -25 13 -180 244 -180
268 0 50 43 42 83 -15z"/>
<path d="M2545 1389 c-52 -30 -63 -102 -20 -144 23 -24 31 -25 134 -25 102 0
112 2 138 24 23 20 28 32 27 66 -2 72 -25 85 -152 88 -67 1 -115 -2 -127 -9z"/>
<path d="M602 1653 c-28 -3 -42 -8 -39 -16 2 -7 19 -11 44 -9 31 3 42 -1 47
-14 8 -20 10 -18 -36 -31 -28 -8 -38 -8 -42 2 -8 23 -63 24 -191 5 -127 -20
-187 -38 -135 -41 23 -1 23 -2 -5 -9 -48 -12 -195 -12 -195 1 0 6 -10 9 -23 7
-18 -2 -22 -9 -22 -37 0 -30 4 -36 30 -43 17 -5 64 -6 105 -2 105 9 388 60
404 74 11 8 15 5 20 -15 4 -15 16 -27 30 -31 53 -13 36 -115 -28 -170 -22 -19
-35 -34 -30 -34 6 0 9 -13 6 -29 -3 -23 -12 -33 -43 -45 -52 -21 -102 -20
-122 2 -8 9 -16 21 -15 25 0 5 -4 12 -8 15 -4 4 -4 1 0 -5 4 -7 2 -13 -4 -13
-29 0 0 23 31 26 43 3 149 39 163 55 8 8 5 9 -11 4 -25 -7 -32 9 -8 19 20 7
19 25 -2 33 -10 4 -34 24 -54 45 -49 52 -96 53 -146 3 -31 -31 -35 -39 -30
-78 4 -38 25 -105 37 -117 3 -3 5 -9 6 -15 1 -23 17 -65 24 -65 5 0 10 -17 12
-37 3 -33 15 -48 113 -136 111 -100 138 -139 130 -187 -9 -49 8 -56 56 -22 45
31 146 128 161 156 13 23 -68 150 -132 210 l-50 47 40 72 c21 40 46 99 53 132
8 33 18 68 22 78 6 13 1 18 -25 23 -22 5 -28 10 -21 17 17 17 13 35 -9 42 -15
5 -20 15 -20 41 0 22 -6 37 -15 40 -8 4 -15 12 -15 20 0 8 -3 13 -7 12 -5 -1
-27 -3 -51 -5z"/>
<path d="M808 852 c-36 -31 -89 -70 -117 -87 -42 -24 -50 -34 -45 -50 35 -114
44 -247 20 -294 -8 -15 -31 -40 -50 -54 -19 -15 -38 -37 -42 -49 -10 -34 -91
-144 -122 -167 -24 -17 -27 -26 -26 -76 0 -68 8 -75 87 -75 53 0 62 4 59 31
-1 3 22 34 50 68 l50 63 27 -32 c36 -43 64 -38 72 14 5 28 16 45 40 64 19 14
77 68 129 118 52 51 112 100 132 109 37 15 118 104 118 130 0 22 -29 38 -58
32 -27 -6 -30 -2 -63 66 -19 39 -60 100 -91 135 -32 35 -58 68 -58 72 0 10
-29 40 -38 40 -4 0 -37 -26 -74 -58z"/>
<path d="M1393 748 c12 -80 15 -487 4 -635 l-8 -113 131 0 130 0 -7 133 c-10
168 -10 342 0 530 l7 147 -133 0 -134 0 10 -62z"/>
<path d="M1715 788 c10 -44 25 -254 25 -358 0 -107 -16 -367 -25 -407 -5 -23
-5 -23 131 -23 l136 0 -5 23 c-4 12 -9 93 -13 179 l-7 158 65 -7 c163 -15 298
102 298 257 0 34 -6 74 -14 89 -22 41 -80 88 -123 100 -21 6 -135 11 -256 11
l-217 0 5 -22z m323 -101 c78 -62 32 -267 -60 -267 -16 0 -18 12 -18 138 0 76
3 142 6 145 9 8 55 -2 72 -16z"/>
<path d="M2348 778 c9 -43 9 -703 0 -745 l-7 -33 273 0 273 0 6 62 c3 35 4 65
2 67 -3 2 -46 -2 -97 -9 -51 -7 -115 -10 -143 -9 l-50 4 -8 45 c-9 48 -2 550
9 613 l6 37 -136 0 -135 0 7 -32z"/>
</g>
</svg>
