<?xml version="1.0" standalone="no"?>
<!DOCTYPE svg PUBLIC "-//W3C//DTD SVG 20010904//EN"
 "http://www.w3.org/TR/2001/REC-SVG-20010904/DTD/svg10.dtd">
<svg version="1.0" xmlns="http://www.w3.org/2000/svg"
 width="184.000000pt" height="184.000000pt" viewBox="0 0 184.000000 184.000000"
 preserveAspectRatio="xMidYMid meet">

<g transform="translate(0.000000,184.000000) scale(0.100000,-0.100000)"
fill="#000000" stroke="none">
<path d="M927 1807 c-26 -11 -24 -12 30 -13 32 0 47 1 33 4 -14 2 -27 8 -30
12 -3 4 -18 3 -33 -3z"/>
<path d="M1085 1800 l-40 -7 35 -1 c19 0 44 3 55 8 24 10 7 10 -50 0z"/>
<path d="M846 1781 c-4 -5 3 -7 14 -4 23 6 26 13 6 13 -8 0 -17 -4 -20 -9z"/>
<path d="M938 1773 c7 -3 16 -2 19 1 4 3 -2 6 -13 5 -11 0 -14 -3 -6 -6z"/>
<path d="M1068 1753 c7 -3 16 -2 19 1 4 3 -2 6 -13 5 -11 0 -14 -3 -6 -6z"/>
<path d="M1115 1750 c-3 -5 -1 -10 4 -10 6 0 11 5 11 10 0 6 -2 10 -4 10 -3 0
-8 -4 -11 -10z"/>
<path d="M1170 1756 c0 -2 9 -6 20 -9 11 -3 20 -1 20 4 0 5 -9 9 -20 9 -11 0
-20 -2 -20 -4z"/>
<path d="M1240 1735 c0 -8 7 -15 16 -15 14 0 14 3 4 15 -7 8 -14 15 -16 15 -2
0 -4 -7 -4 -15z"/>
<path d="M858 1733 c12 -2 32 -2 45 0 12 2 2 4 -23 4 -25 0 -35 -2 -22 -4z"/>
<path d="M1008 1733 c6 -2 18 -2 25 0 6 3 1 5 -13 5 -14 0 -19 -2 -12 -5z"/>
<path d="M800 1719 c0 -5 5 -7 10 -4 6 3 10 8 10 11 0 2 -4 4 -10 4 -5 0 -10
-5 -10 -11z"/>
<path d="M715 1710 c-3 -5 -1 -10 4 -10 6 0 11 5 11 10 0 6 -2 10 -4 10 -3 0
-8 -4 -11 -10z"/>
<path d="M765 1710 c-3 -5 -1 -10 4 -10 6 0 11 5 11 10 0 6 -2 10 -4 10 -3 0
-8 -4 -11 -10z"/>
<path d="M1290 1700 c0 -5 5 -10 11 -10 5 0 7 5 4 10 -3 6 -8 10 -11 10 -2 0
-4 -4 -4 -10z"/>
<path d="M1190 1662 c0 -4 11 -12 25 -19 14 -6 25 -8 25 -4 0 4 -11 13 -25 19
-14 6 -25 8 -25 4z"/>
<path d="M1331 1634 c0 -11 3 -14 6 -6 3 7 2 16 -1 19 -3 4 -6 -2 -5 -13z"/>
<path d="M590 1605 c-11 -13 -10 -14 4 -9 9 3 16 10 16 15 0 13 -6 11 -20 -6z"/>
<path d="M952 1568 c-2 -23 -9 -29 -43 -39 -38 -12 -42 -11 -58 10 l-17 23
-180 -33 c-105 -19 -215 -33 -266 -33 -49 -1 -88 -3 -88 -6 0 -3 5 -12 10 -20
7 -12 31 -15 112 -14 57 0 126 6 153 12 28 6 92 18 143 28 51 9 95 20 98 25
10 17 31 9 42 -16 12 -27 42 -34 42 -11 0 22 40 31 58 12 17 -17 19 -14 -34
-31 -12 -4 -14 -12 -9 -35 9 -42 -12 -100 -49 -132 -17 -15 -34 -28 -38 -28
-4 0 -5 -7 -2 -15 4 -10 -3 -18 -21 -25 -33 -13 -48 -13 -40 0 3 6 15 10 26
10 10 0 19 5 19 10 0 13 -10 13 -49 -1 -32 -11 -40 -24 -18 -32 7 -3 4 -6 -7
-6 -13 -1 -17 -6 -13 -21 3 -11 2 -20 -3 -20 -4 0 -10 11 -12 25 -3 13 -1 22
3 19 5 -3 9 4 9 14 0 14 12 23 45 32 25 7 48 17 52 23 3 6 1 7 -5 3 -17 -10
-25 13 -11 30 10 13 10 17 -2 25 -8 5 -17 9 -20 9 -3 0 -11 11 -18 24 -15 27
-50 46 -86 46 -34 0 -85 -55 -85 -91 0 -34 35 -109 51 -109 6 0 7 5 3 11 -4 8
0 8 15 0 24 -13 29 -23 7 -15 -8 3 -17 1 -21 -5 -3 -6 2 -11 13 -11 11 0 25
-7 32 -15 15 -18 7 -19 -20 -3 -27 17 -36 3 -21 -35 7 -18 16 -44 18 -60 3
-16 28 -48 61 -80 176 -165 170 -158 178 -215 3 -28 10 -52 15 -52 17 0 163
131 180 162 12 23 -62 140 -126 199 -25 23 -45 47 -45 54 0 7 18 47 39 89 33
63 65 163 62 193 -1 7 -5 9 -38 12 -9 1 -10 8 -3 26 8 20 6 27 -10 35 -11 6
-20 24 -23 43 -3 28 -4 29 -5 5z m-245 -324 c-3 -3 -12 -4 -19 -1 -8 3 -5 6 6
6 11 1 17 -2 13 -5z m123 -19 c0 -10 -62 -36 -78 -32 -12 3 -10 5 6 6 12 0 22
6 22 12 0 5 4 8 8 5 4 -2 14 -1 22 5 17 10 20 11 20 4z"/>
<path d="M555 1569 c-4 -6 -5 -12 -2 -15 2 -3 7 2 10 11 7 17 1 20 -8 4z"/>
<path d="M1027 1560 l-28 -18 29 -10 c24 -8 30 -7 41 10 11 18 7 39 -7 37 -4
0 -20 -9 -35 -19z"/>
<path d="M1359 1542 c-3 -20 -2 -29 4 -23 5 5 7 19 5 32 -3 20 -5 19 -9 -9z"/>
<path d="M1301 1454 c0 -11 3 -14 6 -6 3 7 2 16 -1 19 -3 4 -6 -2 -5 -13z"/>
<path d="M1372 1435 c0 -16 2 -22 5 -12 2 9 2 23 0 30 -3 6 -5 -1 -5 -18z"/>
<path d="M1331 1363 c0 -45 2 -84 7 -86 4 -3 6 23 4 56 -5 104 -9 116 -11 30z"/>
<path d="M1302 1260 c0 -14 2 -19 5 -12 2 6 2 18 0 25 -3 6 -5 1 -5 -13z"/>
<path d="M1326 1233 c-6 -14 -5 -15 5 -6 7 7 10 15 7 18 -3 3 -9 -2 -12 -12z"/>
<path d="M1265 1120 c2 -14 5 -29 5 -35 0 -5 7 3 15 19 17 33 20 50 3 21 -11
-19 -11 -19 -20 0 -7 16 -7 15 -3 -5z"/>
<path d="M1227 1045 c-6 -35 -6 -37 9 -21 6 6 8 20 4 31 -6 16 -8 15 -13 -10z"/>
<path d="M1122 883 c-7 -10 -10 -11 -6 -3 4 9 3 12 -2 7 -5 -5 -9 -12 -9 -16
0 -12 -62 -71 -74 -71 -6 0 -11 -4 -11 -8 0 -5 -12 -15 -27 -23 -51 -26 -66
-45 -54 -67 17 -31 35 -202 27 -247 -6 -29 -20 -51 -52 -80 -24 -23 -44 -45
-44 -49 0 -18 -93 -147 -121 -166 -26 -19 -29 -27 -29 -75 0 -61 5 -65 80 -65
41 0 49 3 54 23 3 12 27 48 52 80 l47 59 29 -31 c40 -43 55 -40 64 14 3 25 11
45 18 45 6 0 34 21 62 48 27 26 79 74 114 108 36 34 83 70 105 82 22 11 52 36
66 54 44 57 44 64 2 26 -45 -40 -82 -62 -90 -55 -2 3 9 15 26 28 17 13 31 31
31 42 0 38 -85 191 -140 251 -30 34 -60 70 -66 81 -15 26 -36 30 -52 8z m6
-360 c-10 -2 -28 -2 -40 0 -13 2 -5 4 17 4 22 1 32 -1 23 -4z m-98 -358 c0
-30 -15 -33 -30 -6 -14 27 -13 31 10 31 15 0 20 -7 20 -25z m-213 -77 c7 -6
13 -19 13 -30 0 -16 -6 -19 -42 -16 -44 3 -57 20 -44 55 7 16 49 11 73 -9z"/>
</g>
</svg>
